<svg width="28" height="28" viewBox="0 0 28 28" fill="none" xmlns="http://www.w3.org/2000/svg">
<g clip-path="url(#clip0_36_468)">
<path fill-rule="evenodd" clip-rule="evenodd" d="M15.125 14C15.125 14.6213 14.6213 15.125 14 15.125C13.3787 15.125 12.875 14.6213 12.875 14C12.875 13.3787 13.3787 12.875 14 12.875C14.6213 12.875 15.125 13.3787 15.125 14ZM20.375 12.875C19.7537 12.875 19.25 13.3787 19.25 14C19.25 14.6213 19.7537 15.125 20.375 15.125C20.9963 15.125 21.5 14.6213 21.5 14C21.5 13.3787 20.9963 12.875 20.375 12.875ZM7.625 12.875C7.00368 12.875 6.5 13.3787 6.5 14C6.5 14.6213 7.00368 15.125 7.625 15.125C8.24632 15.125 8.75 14.6213 8.75 14C8.75 13.3787 8.24632 12.875 7.625 12.875Z" fill="white"/>
</g>
<defs>
<clipPath id="clip0_36_468">
<rect width="24" height="24" fill="white" transform="translate(2 2)"/>
</clipPath>
</defs>
</svg>
